PathFileType	4	(X/Y/Z)	s05c0101.trc
DataRate	CameraRate	NumFrames	NumMarkers	Units	OrigDataRate	OrigDataStartFrame	OrigNumFrames
200	200	4	50	mm	200	0	2000
Frame#	Time	racr			lacr			c7			jug			rlel			rdr			llel			ldr			s2			lic			ric			lasi			rasi			rpsi			lpsi			rgt			lgt			rth1			rth2			rth3			rth4			rlfc			rmfc			rsh1			rsh2			rsh3			rsh4			rlmal			rmmal			rcal			rtoe			rmt5			lth1			lth2			lth4			lth3			llfc			lmfc			lsh1			lsh2			lsh3			lsh4			llmal			lmmal			lcal			ltoe			lmt5			SBIKE			LBIKE			RBIKE			
		X1	Y1	Z1	X2	Y2	Z2	X3	Y3	Z3	X4	Y4	Z4	X5	Y5	Z5	X6	Y6	Z6	X7	Y7	Z7	X8	Y8	Z8	X9	Y9	Z9	X10	Y10	Z10	X11	Y11	Z11	X12	Y12	Z12	X13	Y13	Z13	X14	Y14	Z14	X15	Y15	Z15	X16	Y16	Z16	X17	Y17	Z17	X18	Y18	Z18	X19	Y19	Z19	X20	Y20	Z20	X21	Y21	Z21	X22	Y22	Z22	X23	Y23	Z23	X24	Y24	Z24	X25	Y25	Z25	X26	Y26	Z26	X27	Y27	Z27	X28	Y28	Z28	X29	Y29	Z29	X30	Y30	Z30	X31	Y31	Z31	X32	Y32	Z32	X33	Y33	Z33	X34	Y34	Z34	X35	Y35	Z35	X36	Y36	Z36	X37	Y37	Z37	X38	Y38	Z38	X39	Y39	Z39	X40	Y40	Z40	X41	Y41	Z41	X42	Y42	Z42	X43	Y43	Z43	X44	Y44	Z44	X45	Y45	Z45	X46	Y46	Z46	X47	Y47	Z47	X48	Y48	Z48	X49	Y49	Z49	X50	Y50	Z50	
0	0.0000	435.317180	1375.069334	-151.499870	436.177003	1389.871954	-431.413676	410.699129	1463.159146	-295.165991	391.809726	1308.810695	-292.801136	532.203689	1130.572629	-64.010941	696.743549	920.795552	-102.620225	519.306146	1130.817269	-517.641859	752.695286	1030.938397	-477.177240	-106.988525	1161.977807	-273.568916	45.319319	1173.322224	-417.842905	50.393206	1186.782163	-137.577360	89.364842	1115.093010	-387.957734	84.519220	1123.544138	-164.554246	-69.903195	1207.821192	-234.670228	-69.504610	1210.007170	-320.177193	-0.237820	1059.669937	-102.544933	-30.865188	1069.440710	-444.844678	98.775926	997.503347	-87.555422	185.869844	978.365599	-88.598498	249.873983	917.824174	-94.224596	201.730517	1009.913897	-100.951269	379.665047	837.185276	-125.260224	365.871425	831.276359	-235.298244	317.079863	743.889543	-101.672488	313.617313	654.918805	-109.123284	269.533483	581.520519	-112.605289	342.173800	647.145973	-132.536446	240.489376	447.906752	-122.301981	252.073298	472.221449	-201.843872	169.632445	415.091430	-166.289667	464.487244	398.129532	-159.445568	363.887837	372.152801	-95.030300	53.662018	956.516586	-467.217849	128.632501	913.497228	-470.587123	155.001813	936.222015	-455.202639	171.803242	834.646999	-477.213865	251.369814	705.255723	-447.329794	238.820096	697.976749	-337.384623	154.398316	623.313163	-467.580332	112.494571	547.291595	-453.215838	35.880644	502.600694	-450.330077	136.976626	529.668119	-430.075561	-44.452163	408.738154	-438.121215	-15.119818	421.273179	-359.792852	-117.439657	396.158355	-393.922542	144.119467	262.402512	-400.529529	34.382313	281.063473	-463.225668	-265.746902	895.891362	-285.627322	-53.148129	79.420704	-474.870249	-53.009337	78.852274	-77.208900	
1	0.0050	435.355604	1375.077237	-151.532703	436.181671	1389.883832	-431.450944	410.618724	1463.202595	-295.207016	391.874444	1308.786551	-292.859537	532.186789	1130.564908	-63.963008	696.712332	920.797828	-102.603598	519.346056	1130.850676	-517.675444	752.645893	1030.638199	-476.685266	-107.016404	1161.968251	-273.561632	45.337146	1173.345218	-417.919897	50.370346	1186.775600	-137.605169	89.343137	1115.062700	-387.980883	84.501240	1123.560712	-164.546399	-69.912580	1207.805372	-234.686327	-69.512555	1209.998146	-320.176432	-0.209232	1059.666115	-102.558160	-30.883970	1069.431381	-444.848909	98.789806	997.519543	-87.573739	185.884629	978.394641	-88.614570	249.902933	917.863809	-94.242859	201.745875	1009.943022	-100.995751	379.683805	837.224678	-125.277603	365.880592	831.295201	-235.309803	317.095169	743.931771	-101.703368	313.628373	654.970580	-109.147087	269.561740	581.574847	-112.629950	342.197371	647.205184	-132.556010	240.494720	447.961294	-122.298852	252.064135	472.276859	-201.852275	169.642363	415.142733	-166.284448	464.470976	398.173985	-159.449037	363.862061	372.212989	-95.034726	53.650459	956.522954	-467.241376	128.629325	913.495880	-470.602701	154.997652	936.204405	-455.185123	171.810563	834.637017	-477.206568	251.361662	705.241261	-447.319408	238.853162	698.010446	-337.343800	154.396271	623.286141	-467.568882	112.490952	547.264180	-453.216713	35.888512	502.574846	-450.335086	136.983723	529.655264	-430.063524	-44.439138	408.696730	-438.127209	-15.125327	421.268210	-359.772195	-117.428867	396.146706	-393.942008	144.127570	262.370017	-400.536568	34.388114	281.044801	-463.222753	-265.722109	895.897069	-285.680285	-53.182531	79.425764	-474.873265	-53.004165	78.849393	-77.221923	
2	0.0100	435.402138	1375.091182	-151.580811	436.171906	1389.905222	-431.468860	410.544979	1463.240656	-295.259531	391.908758	1308.748996	-292.916477	532.186958	1130.563830	-63.931083	696.711529	920.783970	-102.603910	519.359593	1130.875258	-517.711980	752.788130	1030.636918	-476.720541	-107.037912	1161.960112	-273.568447	45.282007	1173.340026	-417.884935	50.370019	1186.780908	-137.650741	89.328473	1115.071743	-387.990153	84.497483	1123.573018	-164.578538	-69.931505	1207.801287	-234.711148	-69.533878	1209.990738	-320.183321	-0.217118	1059.665188	-102.574280	-30.891266	1069.414364	-444.852949	98.790296	997.526559	-87.584099	185.892686	978.411841	-88.640716	249.905109	917.881614	-94.249286	201.750444	1009.974136	-101.006944	379.712991	837.253361	-125.313153	365.899089	831.321195	-235.320436	317.105782	743.979202	-101.728063	313.642304	654.988189	-109.174779	269.550786	581.608733	-112.639094	342.212840	647.225920	-132.562426	240.492463	447.992984	-122.302829	252.085532	472.301771	-201.854010	169.629436	415.194466	-166.294012	464.465700	398.193381	-159.447576	363.852809	372.249649	-95.026477	53.648043	956.514816	-467.238022	128.627750	913.477024	-470.592275	154.998547	936.192315	-455.195618	171.822132	834.681974	-477.213701	251.354721	705.226001	-447.309434	238.821292	697.986639	-337.328935	154.390491	623.266943	-467.551436	112.491023	547.252056	-453.199778	35.888203	502.543545	-450.331739	136.985007	529.643194	-430.052171	-44.434245	408.661165	-438.130787	-15.113312	421.242247	-359.764039	-117.413073	396.117653	-393.926902	144.131410	262.348739	-400.544723	34.405519	281.022539	-463.236549	-265.724262	895.877073	-285.587534	-53.175886	79.430610	-474.856152	-52.998783	78.845398	-77.231762	
3	0.0150	435.419953	1375.084582	-151.591577	436.189597	1389.945758	-431.508453	410.485177	1463.268881	-295.307756	391.966927	1308.737083	-292.972876	532.213631	1130.567137	-63.889791	696.723671	920.899264	-102.493013	519.389115	1130.898528	-517.745992	752.986636	1031.080643	-476.196130	-107.053231	1161.945788	-273.561822	45.264194	1173.323633	-417.908058	50.207165	1186.839572	-138.179488	89.121808	1115.619964	-387.939474	84.488351	1123.583716	-164.592277	-69.957021	1207.799524	-234.705533	-69.554806	1209.983294	-320.183135	-0.219323	1059.670075	-102.573920	-30.902547	1069.402043	-444.842219	98.781279	997.550354	-87.605012	185.969644	978.353618	-88.726049	249.757623	917.845054	-94.365321	201.753559	1009.989752	-101.032977	379.740195	837.274457	-125.335155	365.936861	831.092643	-235.479810	317.137204	744.005521	-101.757282	313.541314	654.952248	-109.360647	269.571307	581.649095	-112.637564	343.796701	648.450622	-132.448830	240.157366	448.574032	-121.995777	252.168661	472.278641	-201.876522	169.637284	415.219098	-166.303736	464.460576	398.217501	-159.449197	363.858812	372.285978	-95.030383	53.864311	956.770552	-467.545742	128.617076	913.473903	-470.582921	154.998187	936.117842	-455.135915	171.797963	834.616714	-477.184572	251.354282	705.217155	-447.278791	238.829538	697.967163	-337.339554	154.479410	623.198307	-467.564221	112.585037	547.072570	-453.324305	35.840805	502.543388	-450.344741	135.796797	529.005273	-428.850522	-44.417246	408.640565	-438.123226	-17.158950	422.545691	-358.979314	-117.408793	396.128984	-394.027009	144.142566	262.322546	-400.542927	34.410208	280.995358	-463.225663	-265.683471	895.946601	-285.344793	-53.187783	79.412180	-474.864139	-52.970993	78.832183	-77.231221	
